<svg width="300" height="299" viewBox="0 0 300 299" fill="none" xmlns="http://www.w3.org/2000/svg">
<rect x="0.5" width="299" height="299" rx="77" fill="#0071C2"/>
<path d="M238 149.5C238.007 152.216 237.31 154.888 235.978 157.256C234.647 159.623 232.725 161.605 230.4 163.01L86.32 251.15C83.8909 252.638 81.1087 253.45 78.2608 253.502C75.4129 253.555 72.6025 252.847 70.12 251.45C67.6611 250.075 65.6128 248.07 64.1856 245.641C62.7585 243.212 62.0041 240.447 62 237.63V61.3701C62.0041 58.553 62.7585 55.7877 64.1856 53.3588C65.6128 50.9299 67.6611 48.9249 70.12 47.5501C72.6025 46.1536 75.4129 45.4451 78.2608 45.4979C81.1087 45.5506 83.8909 46.3626 86.32 47.8501L230.4 135.99C232.725 137.395 234.647 139.377 235.978 141.745C237.31 144.112 238.007 146.784 238 149.5Z" fill="white"/>
</svg>
